<?xml version="1.0" encoding="UTF-8" standalone="no"?>
<!-- Created with Inkscape (http://www.inkscape.org/) -->

<svg
   width="300mm"
   height="400mm"
   viewBox="0 0 300 400"
   version="1.1"
   id="svg1"
   xml:space="preserve"
   inkscape:version="1.3 (0e150ed, 2023-07-21)"
   sodipodi:docname="NewLogoSmall.svg"
   xmlns:inkscape="http://www.inkscape.org/namespaces/inkscape"
   xmlns:sodipodi="http://sodipodi.sourceforge.net/DTD/sodipodi-0.dtd"
   xmlns:xlink="http://www.w3.org/1999/xlink"
   xmlns="http://www.w3.org/2000/svg"
   xmlns:svg="http://www.w3.org/2000/svg"><sodipodi:namedview
     id="namedview1"
     pagecolor="#ffffff"
     bordercolor="#000000"
     borderopacity="0.25"
     inkscape:showpageshadow="2"
     inkscape:pageopacity="0.0"
     inkscape:pagecheckerboard="0"
     inkscape:deskcolor="#d1d1d1"
     inkscape:document-units="mm"
     showguides="false"
     inkscape:zoom="0.84327514"
     inkscape:cx="282.82584"
     inkscape:cy="625.53724"
     inkscape:window-width="1512"
     inkscape:window-height="920"
     inkscape:window-x="0"
     inkscape:window-y="34"
     inkscape:window-maximized="1"
     inkscape:current-layer="layer6"><sodipodi:guide
       position="1196.8375,315.72123"
       orientation="0,-1"
       id="guide3"
       inkscape:locked="false" /><sodipodi:guide
       position="1287.308,223.47968"
       orientation="1,0"
       id="guide89"
       inkscape:locked="false" /></sodipodi:namedview><defs
     id="defs1"><linearGradient
       id="linearGradient1"
       inkscape:collect="always"><stop
         style="stop-color:#fed52f;stop-opacity:1;"
         offset="0.18421052"
         id="stop1" /><stop
         style="stop-color:#ea8101;stop-opacity:1;"
         offset="0.78532165"
         id="stop2" /></linearGradient><linearGradient
       inkscape:collect="always"
       xlink:href="#linearGradient1"
       id="linearGradient2"
       x1="112.20473"
       y1="115.57323"
       x2="165.33986"
       y2="170.48068"
       gradientUnits="userSpaceOnUse" /></defs><g
     inkscape:groupmode="layer"
     id="layer6"
     inkscape:label="SobreNaramjaSinPicos"
     style="display:inline"
     transform="translate(-1.1048392,-28.72582)"><path
       id="path65"
       style="display:inline;fill:#000000;fill-opacity:1;stroke:none;stroke-width:18.2391;stroke-dasharray:none;stroke-opacity:1;paint-order:stroke markers fill"
       inkscape:label="Borde"
       d="m 100.81201,74.573254 c 0,0 -25.497657,82.770586 -38.350687,124.310826 l 47.392147,-14.05041 -41.817107,20.65428 2.41786,2.9706 c 0,0 24.35971,-6.5448 33.648407,-9.21229 -14.274257,37.08557 -40.442817,106.10422 -41.323257,108.4786 l 30.84084,-33.75274 58.540477,-64.09643 0.3542,-0.33107 c 27.08513,-29.54 80.99062,-88.92401 80.99062,-88.92401 l -35.38551,4.45626 24.76841,-34.955856 -8.43048,-12.32293 -32.87409,49.304606 -7.81223,0.98788 5.2e-4,-5.3e-4 v 0 l 37.991,-53.534096 z m 7.50903,9.58324 84.85306,0.13844 -39.4902,55.660596 55.26295,-6.51161 L 85.555973,268.5959 126.1479,170.16697 77.351963,184.17374 Z m 128.62326,40.893996 -48.28392,50.76908 c 0,0 -80.28109,90.8058 -121.549307,137.48638 l 7.33738,9.69596 L 244.97064,135.395 Z"
       sodipodi:nodetypes="cccccccccccccccccccccccccccccccccc" /><path
       id="path68"
       style="display:inline;fill:#aa1902;fill-opacity:1;stroke:none;stroke-width:19.0698;stroke-linecap:square;stroke-linejoin:miter;stroke-dasharray:none;stroke-opacity:1;paint-order:markers stroke fill"
       d="m 193.25365,84.162444 -11.00337,5.63052 -40.2881,55.127336 11.89055,-5.10794 z m 15.69039,49.284596 -13.48364,6.0952 -94.42586,102.22257 -15.474627,26.83468 z m -71.73659,26.01149 -52.612707,16.54185 -7.23614,8.17446 48.788467,-14.00814 z"
       inkscape:label="Sombra"
       sodipodi:nodetypes="ccccccccccccccc" /><path
       id="path71"
       style="display:inline;fill:#fe09e5;fill-opacity:1;stroke:none;stroke-width:19.0698;stroke-linecap:square;stroke-linejoin:miter;stroke-dasharray:none;stroke-opacity:1;paint-order:markers stroke fill"
       d="m 233.50675,120.61996 -81.20681,89.16134 36.14851,-33.75332 48.49461,-50.97574 z m -123.67342,64.22559 -47.365577,14.01882 5.59405,6.59483 z"
       inkscape:label="Magenta"
       sodipodi:nodetypes="ccccccccc" /><path
       id="rect1"
       style="display:inline;fill:#ffffff;fill-opacity:1;stroke-width:19.0698;stroke-linecap:square;paint-order:markers stroke fill"
       d="m 108.38978,84.142544 -31.147267,100.131006 7.3514,-8.27217 27.019717,-86.337266 70.64017,0.16849 10.86984,-5.59186 z m 100.558,49.300946 -55.22474,6.44067 -11.76699,5.01342 53.49594,-5.35684 z m -71.74615,26.02136 -11.18737,10.66671 -40.498477,98.39941 15.539207,-26.79547 z"
       inkscape:label="Luz"
       sodipodi:nodetypes="ccccccccccccccccc" /><path
       id="path31"
       style="display:inline;fill:url(#linearGradient2);fill-opacity:1;stroke-width:19.0698;stroke-linecap:square;paint-order:markers stroke fill"
       inkscape:label="Naranja"
       d="m 108.32104,84.156494 c -15.476497,49.974216 -15.466517,49.928496 0.0643,0 z m 3.29259,5.50762 -27.019507,86.334896 52.613217,-16.54089 c -12.062,27.42046 -36.16222,82.28643 -36.16222,82.28643 l 94.41539,-102.20276 -53.50415,5.38117 c 0,0 26.7732,-36.69505 40.26453,-55.090496 z"
       sodipodi:nodetypes="ccccccccccc" /><path
       id="path34"
       style="display:inline;fill:#27ebff;fill-opacity:1;stroke:none;stroke-width:18.2391;stroke-dasharray:none;stroke-opacity:1;paint-order:stroke markers fill"
       inkscape:label="Cyan"
       d="m 211.76085,74.570284 -37.98882,53.519776 7.81223,-0.98787 32.66641,-48.993056 z m -59.59984,135.305466 -89.419427,97.92035 4.35079,5.52872 121.578607,-137.51647 z"
       sodipodi:nodetypes="cccccccccc" /><path
       id="path83"
       style="display:inline;fill:#ffffff;fill-opacity:1;stroke:none;stroke-width:18.2391;stroke-dasharray:none;stroke-opacity:1;paint-order:stroke markers fill"
       inkscape:label="Blanco"
       d="m 216.3593,65.766524 -121.484937,0.0548 -42.72247,135.889816 14.26128,16.9088 23.19932,-6.16026 -38.99407,100.91967 22.71107,28.80941 185.736497,-204.85212 -19.58898,-26.07977 -22.79737,2.80017 16.70956,-23.542086 z m -4.59866,8.80232 c 3.69403,5.25043 7.29979,10.56126 10.92082,15.86233 0,0 -16.3803,23.094736 -24.57018,34.642116 l 35.39495,-4.45393 11.46379,14.77777 -170.604327,187.53084 c -3.74803,-5.14489 -7.67372,-10.1493 -11.62411,-15.13826 0.88033,-2.37439 27.11846,-71.447 41.392717,-108.53254 -2.22369,0.6386 -33.792217,9.21491 -33.792217,9.21491 l -7.87827,-9.59001 c 0,0 24.05535,-78.60883 38.348197,-124.308916 z"
       sodipodi:nodetypes="cccccccccccccccccccccccc" /></g></svg>
